PathFileType	4	(X/Y/Z)	47_1_20_p0_0-461_filt_butterworth.trc
DataRate	CameraRate	NumFrames	NumMarkers	Units	OrigDataRate	OrigDataStartFrame	OrigNumFrames
59.0	59.0	5	27	m	59.0	172	461
Frame#	Time	RHip			RKnee			RAnkle			RBigToe			RSmallToe			RHeel			LHip			LKnee			LAnkle			LBigToe			LSmallToe			LHeel			Neck			Head			Nose			RShoulder			RElbow			RWrist			RThumb			RIndex			RPinky			LShoulder			LElbow			LWrist			LThumb			LIndex			LPinky			
		X1	Y1	Z1	X2	Y2	Z2	X3	Y3	Z3	X4	Y4	Z4	X5	Y5	Z5	X6	Y6	Z6	X7	Y7	Z7	X8	Y8	Z8	X9	Y9	Z9	X10	Y10	Z10	X11	Y11	Z11	X12	Y12	Z12	X13	Y13	Z13	X14	Y14	Z14	X15	Y15	Z15	X16	Y16	Z16	X17	Y17	Z17	X18	Y18	Z18	X19	Y19	Z19	X20	Y20	Z20	X21	Y21	Z21	X22	Y22	Z22	X23	Y23	Z23	X24	Y24	Z24	X25	Y25	Z25	X26	Y26	Z26	X27	Y27	Z27	
172	2.915254237288136	0.3717367298466439	0.5858764792226043	0.6898622117306034	0.36385676810846573	0.12860449510310054	0.6393592974014983	0.3363847298065912	-0.294126815691777	0.7415152030179919	0.343103760827039	-0.3258719188698477	0.5982092511220519	0.4081061225113798	-0.3273253997555963	0.6242532679099904	0.2889645347689565	-0.39675080109859157	0.8582308142371192	0.176637573687801	0.5711096053922466	0.6301070070127648	0.1366286224956941	0.08682468370638513	0.7085825986997227	0.13290011447428327	-0.33584225939628815	0.7421492754907685	0.21715156247437772	-0.31323635704561953	0.5597601424225348	0.14164693298748135	-0.35048436178848735	0.6111348569503853	0.1282367330516965	-0.40015264100252523	0.8063343177930659	0.25280992842679184	1.065364829476507	0.5993034084190803	0.31796322105896574	1.309353803183502	0.42674879003612853	0.32850792277785157	1.147030293956478	0.42991001034816523	0.4072273175479436	1.0083250363955998	0.6619627032534597	0.46526902313842244	0.7706759619428943	0.7648744996020991	0.5026950953525107	0.5592411144251863	0.6199649953253089	0.4533331183939878	0.4948633851075916	0.5395655895742053	0.4776297677283343	0.4796191890691647	0.5230277924168403	0.49236113382119767	0.44548137953096234	0.5917397726859114	0.13134828553503766	0.9918525804272941	0.5610175492559563	0.04930162546300132	0.7309055887478686	0.6300140996591348	0.04302157354292774	0.5083446314854387	0.5203082122777883	0.11025777653968144	0.41847529599915156	0.47748956798657893	0.06689659701287713	0.3739625299027385	0.4890487953978454	0.037521572872343555	0.3781365849674084	0.5182085669305427	
173	2.9322033898305087	0.3712284397933044	0.5866617870456723	0.694038598693121	0.36528353571964495	0.12951063258556872	0.6357391396525234	0.3367353617331111	-0.2921719698684553	0.7345956032513804	0.34355312774941127	-0.3251849668280824	0.5955032577608624	0.4071606852676901	-0.32786511614156133	0.6228329905504467	0.28913636562123024	-0.39676952628738543	0.8525356857444466	0.17630591468314358	0.5718789088871512	0.6311185781663937	0.1368020641620763	0.0867847561328447	0.7088889710303066	0.13304380788633094	-0.3349852986599054	0.7424327913143806	0.21864055798728482	-0.31123162213310096	0.5557800657089729	0.1423591558740062	-0.3496635395035092	0.6114995044151447	0.12818124429784375	-0.4003469414726733	0.806992456687045	0.25484379086889564	1.0628089645370475	0.5969794181421915	0.3228880056427088	1.3053859158891226	0.420886117315166	0.33176013314779496	1.1420380033658435	0.42805296636128676	0.4093972373897336	1.0081182558336905	0.6632101106172967	0.4654625183124682	0.7725368917424855	0.7726144829476356	0.5080139541182038	0.5642426158397991	0.6171674568735643	0.4608705116685726	0.5005177407447625	0.5352668549042062	0.4826786820462816	0.48451558962646957	0.5187246279619421	0.4991652994052656	0.4497054011659479	0.5921113475572517	0.13154706616350084	0.9926104839788209	0.5622169243130781	0.04937090499644736	0.7309276915446891	0.6294809753267361	0.04008888623799854	0.511139407607491	0.5137271821390045	0.10988110680693755	0.42073825934145564	0.470727287183458	0.06371361985672663	0.3774780441223157	0.47998959677059294	0.035356391926841035	0.3773761053610547	0.5127061651506563	
174	2.949152542372881	0.37090489939459154	0.587056639337932	0.6976866516278153	0.36634178301859904	0.12954154611022828	0.6334490217706666	0.33689591942907215	-0.2908041897805051	0.7287091457308309	0.34395417121105587	-0.32472714110335904	0.5933295143758888	0.4065584938934984	-0.3286060059410498	0.6225118996627237	0.2889393282707651	-0.3972792247911861	0.8477385065110243	0.17650533894677517	0.5726480442267423	0.6313924337738289	0.13696991484012286	0.08680313643657106	0.7090508532428494	0.13297965861682887	-0.33436064428345447	0.7428648524754334	0.2197062646024469	-0.30993841331152566	0.5526626942388739	0.1427738848893453	-0.34909731747536193	0.6119002654705004	0.1281580623919277	-0.4005922989818293	0.8076729784523147	0.2573850511440294	1.0602239661815513	0.5950057125146908	0.32840206882879175	1.3014207440982708	0.4145724920580778	0.3349796205737075	1.1376156300788316	0.4262386119241823	0.41163909936877074	1.007264336928552	0.6642394114827216	0.46492932692502026	0.7735665933852344	0.7788618210073119	0.510285767999555	0.5681982130223892	0.6170201565841795	0.46584210910839885	0.5055007528999226	0.5328757949619455	0.4854468460713195	0.4882880216296407	0.5166156625667131	0.5020095332532689	0.45308658493188736	0.5947906884277387	0.13240290119036047	0.9934017425366526	0.5648725743910816	0.04929784861961945	0.7308355811133477	0.6297011959585868	0.0378639464064687	0.5137152833998802	0.5098916059831058	0.10918511171877526	0.42334144124437556	0.4671674068417518	0.060841792326518915	0.3819557697198348	0.4704642299909032	0.033923091205873876	0.3781238435793961	0.5079494467226505	
175	2.9661016949152543	0.3707838261951416	0.5871442858093677	0.7007449655688212	0.36699452600125787	0.12881675738810758	0.6322020998247022	0.33679450212294954	-0.29009401668168733	0.7240973838153726	0.34421776967781204	-0.32476988603440493	0.592031912614227	0.4064411820392231	-0.3294562121886721	0.6229954186646227	0.28841736063656676	-0.3984375026732573	0.843895885526286	0.17707925386065038	0.5733164349257094	0.6312379224848753	0.13721235028532358	0.08688146641153632	0.7090606078564787	0.13279824670021237	-0.33401247499894365	0.7433272463167255	0.22053805186778186	-0.3090610157535062	0.5503636676912743	0.14271876767114824	-0.34878555405110234	0.6121985721530896	0.12818550235219506	-0.4007993856097263	0.808188442392563	0.26023250649675544	1.057632465528087	0.5937810479818352	0.33429406297774966	1.2976861507229946	0.40795079182725946	0.3383502628360202	1.1341643509516663	0.42406238601829216	0.4133669796856023	1.0055895565302793	0.6656493856581356	0.4642272794620124	0.7740702477601069	0.783057146626864	0.510407519086072	0.5709485632831505	0.6191779940834579	0.46784734100894865	0.5097386884737249	0.5329538124124824	0.4865208498420016	0.49132489742599805	0.5159517719818201	0.5006782115865163	0.4555196367145886	0.5988352531066189	0.13405505306700954	0.9941063778817221	0.5678657073136459	0.04867809936185068	0.7307547224196761	0.6307734582876149	0.03677377179838548	0.5163844497146363	0.5078454169929437	0.10893765925867632	0.4272597502673406	0.4649916928618817	0.05951934025412367	0.3878164321642964	0.4608413241611902	0.03317848966142835	0.3809887907969225	0.5046099413899267	
176	2.983050847457627	0.37080808614455446	0.5870874299859808	0.7033075535721703	0.36717714322411926	0.12736193204561988	0.6320399126448901	0.33642959246408183	-0.2900037164708682	0.7207929027901431	0.34431245732717486	-0.32534678274604945	0.5916052382766617	0.40681312323224583	-0.3302049776977997	0.6238009578023002	0.2877022398338784	-0.4002277766533902	0.8409645791575796	0.1778055532840952	0.57390144196973	0.6311644404280599	0.1375892528976542	0.0869978075274066	0.7088719511076512	0.13256610549565284	-0.3340406580340244	0.743752380223573	0.22118597807903623	-0.3083980728004097	0.5489254349224589	0.14219001652265392	-0.3486354983033957	0.6122773511949998	0.12824330865885744	-0.4009009606065381	0.8083782894343055	0.26306622819488473	1.0549099763694805	0.5935901350014036	0.34034149357861143	1.2942105565563284	0.4014333095289335	0.34188437085955803	1.1315820583662142	0.421490438816592	0.41435184357621674	1.003222832697139	0.6675495160393825	0.4640584922179777	0.7741956363425839	0.7852878557798607	0.5096335451550948	0.5724857159337866	0.622646243685178	0.4670235723777291	0.5129333875921512	0.535563568551455	0.48598349894905896	0.49378480583554357	0.5164445801464475	0.495646963422295	0.45690792112777256	0.6033182598113693	0.13636854533191206	0.9946100585181012	0.5703763487860674	0.04750356370099655	0.7310125888897483	0.6323955398790817	0.0370240754406928	0.5193258515519529	0.5070702958472162	0.10961949524540829	0.4330505294258542	0.46325154702391347	0.06085087679083394	0.3952305249277277	0.4524884808068359	0.032868257482951226	0.3860399775896901	0.5031563881939128	
